<svg xmlns="http://www.w3.org/2000/svg" viewBox="0 0 400 350">
  <defs>
    <linearGradient id="teamGrad" x1="0%" y1="0%" x2="100%" y2="100%">
      <stop offset="0%" style="stop-color:#38ad4b;stop-opacity:0.8" />
      <stop offset="100%" style="stop-color:#4cd760;stop-opacity:0.6" />
    </linearGradient>
  </defs>
  
  <!-- Background Elements -->
  <circle cx="200" cy="175" r="120" fill="#38ad4b" opacity="0.1"/>
  <circle cx="200" cy="175" r="90" fill="#38ad4b" opacity="0.1"/>
  
  <!-- Team Members -->
  <!-- Person 1 - Left -->
  <g transform="translate(60, 100)">
    <circle cx="40" cy="40" r="30" fill="#e0e0e0"/>
    <circle cx="40" cy="35" r="18" fill="#bbb"/>
    <ellipse cx="40" cy="70" rx="25" ry="15" fill="#bbb"/>
    <rect x="15" y="85" width="50" height="60" rx="8" fill="url(#teamGrad)"/>
  </g>
  
  <!-- Person 2 - Center/Main -->
  <g transform="translate(140, 60)">
    <circle cx="60" cy="50" r="40" fill="#e8e8e8"/>
    <circle cx="60" cy="43" r="22" fill="#ccc"/>
    <ellipse cx="60" cy="85" rx="30" ry="18" fill="#ccc"/>
    <rect x="25" y="110" width="70" height="80" rx="10" fill="#200148"/>
    <!-- Laptop -->
    <rect x="30" y="165" width="60" height="40" rx="4" fill="#2d2d2d"/>
    <rect x="35" y="170" width="50" height="30" rx="2" fill="#38ad4b" opacity="0.7"/>
  </g>
  
  <!-- Person 3 - Right -->
  <g transform="translate(260, 100)">
    <circle cx="40" cy="40" r="30" fill="#e0e0e0"/>
    <circle cx="40" cy="35" r="18" fill="#bbb"/>
    <ellipse cx="40" cy="70" rx="25" ry="15" fill="#bbb"/>
    <rect x="15" y="85" width="50" height="60" rx="8" fill="#3a1078"/>
  </g>
  
  <!-- Connection Lines -->
  <line x1="100" y1="140" x2="160" y2="120" stroke="#38ad4b" stroke-width="2" stroke-dasharray="5,5" opacity="0.5"/>
  <line x1="260" y1="120" x2="300" y2="140" stroke="#38ad4b" stroke-width="2" stroke-dasharray="5,5" opacity="0.5"/>
  
  <!-- Floating Icons -->
  <circle cx="50" cy="60" r="15" fill="#38ad4b" opacity="0.3"/>
  <text x="50" y="65" font-size="14" fill="white" text-anchor="middle">💡</text>
  
  <circle cx="350" cy="80" r="15" fill="#4cd760" opacity="0.3"/>
  <text x="350" y="85" font-size="14" fill="white" text-anchor="middle">⚡</text>
  
  <circle cx="70" cy="280" r="12" fill="#38ad4b" opacity="0.2"/>
  <circle cx="330" cy="260" r="10" fill="#4cd760" opacity="0.2"/>
  
  <!-- Decorative dots -->
  <circle cx="20" cy="150" r="4" fill="#38ad4b" opacity="0.6"/>
  <circle cx="380" cy="180" r="4" fill="#4cd760" opacity="0.6"/>
  <circle cx="200" cy="320" r="5" fill="#38ad4b" opacity="0.4"/>
</svg>
